<?xml version="1.0" standalone="no"?>
<!DOCTYPE svg PUBLIC "-//W3C//DTD SVG 20010904//EN"
 "http://www.w3.org/TR/2001/REC-SVG-20010904/DTD/svg10.dtd">
<svg version="1.0" xmlns="http://www.w3.org/2000/svg"
 width="1280.000000pt" height="495.000000pt" viewBox="0 0 1280.000000 495.000000"
 preserveAspectRatio="xMidYMid meet">
<metadata>
Created by potrace 1.15, written by Peter Selinger 2001-2017
</metadata>
<g transform="translate(0.000000,495.000000) scale(0.100000,-0.100000)"
fill="#000000" stroke="none">
<path d="M8890 4880 c0 -68 -1 -70 -24 -70 -14 0 -28 5 -31 10 -9 15 -41 12
-55 -5 -10 -12 -29 -15 -79 -13 -60 3 -66 5 -69 26 l-3 22 -309 0 -309 0 -3
-22 -3 -23 -459 -2 c-253 -1 -463 -6 -467 -10 -5 -5 5 -35 21 -68 16 -33 59
-121 94 -195 36 -74 86 -168 111 -207 l47 -73 134 0 134 0 0 -60 0 -60 -51 0
c-45 0 -54 4 -83 35 -28 29 -41 35 -74 35 -33 0 -46 -6 -73 -35 -31 -32 -38
-35 -91 -35 l-58 0 0 -85 0 -85 55 0 55 0 0 -140 0 -139 -127 -3 -128 -3 -3
-32 -3 -33 -435 0 c-283 0 -434 3 -434 10 0 7 -302 10 -885 10 l-885 0 0 63
c0 35 -3 66 -6 69 -3 3 -6 47 -7 97 -2 83 -4 93 -28 117 -48 47 -146 33 -168
-25 -5 -14 -18 -62 -28 -106 l-18 -80 -1283 -3 -1284 -2 4 -60 3 -60 -277 0
c-177 0 -279 -4 -283 -10 -4 -6 -22 -68 -41 -138 -19 -70 -37 -135 -40 -144
-3 -11 -15 -18 -28 -18 -13 0 -29 -7 -36 -15 -7 -9 -29 -15 -51 -15 -21 0 -41
-4 -44 -10 -4 -6 -80 -10 -195 -10 -160 0 -189 2 -194 16 -4 12 -19 14 -63 12
l-58 -3 -9 -91 c-5 -51 -5 -134 -2 -186 l8 -94 273 1 c150 0 276 -2 279 -5 2
-3 -6 -43 -19 -89 -13 -46 -29 -113 -36 -148 -7 -34 -16 -63 -21 -63 -4 0 -8
-14 -8 -31 l0 -31 -370 4 -370 3 0 -437 0 -438 69 0 c52 0 70 -4 75 -15 5 -13
208 -15 1750 -15 1581 0 1744 -1 1750 -16 3 -9 6 -30 6 -49 0 -18 6 -50 14
-71 7 -22 19 -72 26 -111 14 -84 41 -132 88 -153 28 -13 35 -25 56 -92 29 -93
80 -315 96 -415 19 -118 72 -177 157 -174 26 0 230 19 453 40 223 22 407 37
410 35 2 -3 43 -145 91 -317 l86 -312 312 -3 c295 -2 311 -1 301 15 -6 10 -96
356 -199 768 l-189 750 179 180 179 180 -15 305 c-8 168 -15 323 -15 346 l0
41 247 7 c227 7 250 6 285 -11 26 -12 38 -25 38 -39 l0 -22 -61 25 c-82 33
-190 41 -254 19 -71 -23 -114 -61 -144 -125 -22 -49 -26 -69 -26 -156 0 -83 4
-108 23 -150 62 -134 218 -219 443 -240 102 -10 173 6 289 65 l95 47 18 -23
c14 -18 27 -23 69 -23 64 0 106 -12 163 -45 40 -24 75 -75 75 -108 0 -7 61
-195 136 -418 100 -296 136 -412 131 -431 -4 -15 -22 -49 -41 -76 -75 -110
-89 -158 -61 -213 33 -63 80 -73 185 -41 61 19 62 19 67 0 4 -14 14 -19 37
-19 51 0 149 19 243 46 123 35 390 142 396 158 3 8 -2 24 -11 37 -13 19 -13
24 -2 27 27 9 60 51 60 76 0 31 -79 259 -137 395 -104 245 -246 489 -405 700
-53 70 -58 97 -38 202 21 110 66 158 168 180 31 6 62 18 68 27 9 13 77 9 600
-32 324 -25 599 -46 612 -46 l22 0 0 -203 0 -203 -45 -44 c-25 -24 -45 -48
-45 -52 0 -4 18 -8 39 -8 22 0 43 -4 46 -10 8 -13 -29 -308 -61 -490 -53 -303
-137 -622 -235 -890 -54 -147 -59 -188 -29 -215 23 -21 966 -299 987 -291 20
8 36 50 99 264 171 578 251 984 261 1331 l6 193 43 -5 c54 -6 69 9 59 55 -9
38 -19 478 -11 478 3 0 375 -29 826 -65 451 -36 831 -65 844 -65 20 0 26 -8
35 -44 15 -62 105 -135 301 -248 87 -50 95 -57 92 -82 -3 -21 1 -29 16 -33 11
-3 23 -14 26 -25 5 -21 9 -21 168 -14 229 10 235 11 258 57 23 43 26 85 8 91
-9 3 -13 30 -14 80 -1 41 -7 84 -13 96 -14 26 -14 89 -1 97 15 9 12 51 -5 65
-17 14 -21 95 -5 105 16 10 12 71 -6 86 -16 13 -16 33 2 132 4 24 2 43 -6 52
-9 11 -10 38 -5 99 4 56 3 86 -4 91 -18 10 -13 71 10 114 11 22 22 62 23 88 3
49 20 93 36 93 13 0 23 38 24 94 2 36 7 53 23 65 32 26 44 58 38 95 -7 37 16
106 36 106 18 0 4 109 -19 139 -46 62 -60 66 -235 68 -89 0 -265 -2 -392 -6
-186 -7 -235 -6 -257 5 -22 12 -213 14 -1086 14 l-1058 0 -34 -25 c-19 -14
-46 -25 -61 -25 -25 0 -28 4 -31 38 l-3 37 -92 3 c-91 3 -93 3 -93 27 0 14 -4
25 -10 25 -5 0 -10 9 -10 20 0 13 7 20 19 20 11 0 22 3 24 8 9 13 47 240 47
277 l0 35 -219 0 -218 0 -7 53 c-3 28 -6 66 -6 82 l0 30 115 -3 c63 -2 115 -7
115 -13 0 -5 38 -9 84 -9 80 0 85 -1 88 -22 2 -15 10 -23 23 -23 20 0 20 8 23
328 l2 327 -24 0 c-15 0 -26 -7 -29 -20 -5 -18 -14 -20 -85 -20 -45 0 -84 -4
-87 -10 -4 -6 -53 -10 -116 -10 -102 0 -109 -1 -109 -20 0 -17 -7 -20 -50 -20
l-50 0 0 95 0 95 -30 0 -30 0 0 -70z m-1145 -640 c-3 -5 -15 -10 -25 -10 -10
0 -22 5 -25 10 -4 6 7 10 25 10 18 0 29 -4 25 -10z m215 -55 l0 -65 88 -2 87
-2 -84 -3 c-63 -3 -89 0 -107 12 -13 8 -45 15 -74 15 l-50 0 0 55 0 55 70 0
70 0 0 -65z m320 -300 l0 -75 -155 0 -154 0 -32 40 -32 40 -126 0 c-135 0
-171 11 -171 51 0 18 10 19 335 19 l335 0 0 -75z m532 -10 c80 -50 146 -85
162 -85 19 0 26 -5 26 -20 0 -26 -14 -25 -115 5 -76 24 -85 29 -102 62 -26 52
-65 78 -117 77 -23 0 -53 -8 -68 -18 -24 -16 -28 -15 -88 13 -49 23 -67 28
-82 20 -36 -19 -18 -51 50 -87 35 -19 62 -35 60 -36 -2 -1 -33 0 -70 2 l-68 4
0 74 0 74 138 0 138 0 136 -85z m-2268 -556 c19 -15 26 -30 26 -54 0 -50 -37
-75 -112 -75 -49 0 -63 4 -83 25 -14 13 -25 36 -25 50 0 14 11 37 25 50 33 34
128 36 169 4z m270 0 c19 -15 26 -30 26 -54 0 -50 -37 -75 -110 -75 -73 0
-110 25 -110 75 0 50 37 75 110 75 43 0 64 -5 84 -21z m471 -4 c14 -13 25 -36
25 -50 0 -14 -11 -37 -25 -50 -22 -23 -32 -25 -110 -25 -78 0 -88 2 -110 25
-14 13 -25 36 -25 50 0 14 11 37 25 50 22 23 32 25 110 25 78 0 88 -2 110 -25z
m409 4 c19 -15 26 -30 26 -54 0 -55 -36 -75 -130 -75 -94 0 -130 20 -130 75 0
55 36 75 130 75 63 0 82 -4 104 -21z m421 -4 c14 -13 25 -36 25 -50 0 -14 -11
-37 -25 -50 -22 -23 -32 -25 -110 -25 -78 0 -88 2 -110 25 -14 13 -25 36 -25
50 0 14 11 37 25 50 22 23 32 25 110 25 78 0 88 -2 110 -25z m-6481 -41 c31
-12 16 -24 -29 -24 -33 0 -45 4 -45 15 0 16 43 21 74 9z m294 -11 c3 -10 -15
-13 -68 -13 -64 0 -71 2 -60 15 16 20 121 17 128 -2z m502 2 c11 -13 2 -15
-69 -15 -65 0 -81 3 -81 15 0 12 14 15 69 15 49 0 72 -4 81 -15z m410 0 c11
-13 -2 -15 -105 -15 -103 0 -116 2 -105 15 9 11 35 15 105 15 70 0 96 -4 105
-15z m404 9 c41 -16 6 -24 -100 -24 -102 0 -115 2 -104 15 9 11 34 15 100 15
49 0 95 -3 104 -6z m446 -9 c0 -12 -18 -15 -100 -15 -55 0 -100 4 -100 9 0 16
21 19 113 20 71 1 87 -2 87 -14z m430 0 c11 -13 6 -15 -34 -15 -34 0 -46 4
-46 15 0 10 10 15 34 15 18 0 39 -7 46 -15z m404 9 c41 -16 6 -24 -100 -24
-102 0 -115 2 -104 15 9 11 34 15 100 15 49 0 95 -3 104 -6z m396 -9 c11 -13
-2 -15 -104 -15 -64 0 -116 4 -116 9 0 16 22 19 116 20 70 1 94 -3 104 -14z
m824 9 c40 -15 7 -24 -90 -24 -94 0 -105 2 -94 15 9 11 33 15 90 15 43 0 85
-3 94 -6z m334 -11 c3 -10 -21 -13 -97 -13 -91 0 -124 9 -88 24 26 10 180 1
185 -11z m-5359 -52 c8 -5 11 -16 8 -25 -6 -14 -29 -16 -171 -16 -130 0 -165
3 -169 14 -12 30 16 36 168 36 82 0 156 -4 164 -9z m11 -171 c0 -19 -7 -20
-169 -20 -163 0 -192 5 -176 30 4 6 73 10 176 10 162 0 169 -1 169 -20z m1198
-84 c6 -29 -16 -36 -115 -36 -83 0 -93 2 -107 22 -8 12 -13 25 -10 30 3 5 56
7 117 6 100 -3 112 -5 115 -22z m422 6 c0 -25 -19 -42 -47 -42 -19 0 -23 5
-23 30 0 28 3 30 35 30 27 0 35 -4 35 -18z m414 10 c3 -5 -2 -18 -10 -30 -14
-20 -24 -22 -109 -22 -96 0 -125 11 -125 46 0 11 23 14 119 14 66 0 122 -4
125 -8z m413 -8 c2 -7 -3 -19 -12 -28 -13 -12 -37 -16 -110 -16 -85 0 -95 2
-109 22 -8 12 -13 25 -10 30 8 13 237 5 241 -8z m453 -2 c0 -35 -21 -42 -120
-42 -99 0 -120 7 -120 42 0 16 11 18 120 18 109 0 120 -2 120 -18z m827 2 c2
-7 -3 -19 -12 -28 -13 -12 -37 -16 -110 -16 -85 0 -95 2 -109 22 -8 12 -13 25
-10 30 8 13 237 5 241 -8z m383 -2 c0 -35 -21 -42 -120 -42 -99 0 -120 7 -120
42 0 16 11 18 120 18 109 0 120 -2 120 -18z m1155 8 c3 -5 1 -19 -5 -30 -10
-18 -21 -20 -100 -20 -78 0 -91 2 -100 19 -5 11 -10 24 -10 30 0 14 206 15
215 1z m-4440 -30 c-16 -17 -31 -20 -110 -20 -57 0 -95 4 -103 12 -22 22 -13
30 26 23 20 -3 67 -9 103 -11 52 -4 68 -2 79 10 7 9 15 14 18 11 3 -3 -3 -14
-13 -25z m-365 12 c0 -18 -26 -32 -59 -32 l-36 0 25 20 c25 19 70 27 70 12z
m5428 -617 l2 -251 -102 -52 c-133 -67 -190 -79 -315 -63 -268 33 -403 147
-403 342 0 217 143 308 365 231 l80 -27 3 -47 3 -47 47 -3 47 -3 3 -60 c2 -33
-1 -76 -7 -96 -15 -49 -84 -115 -142 -134 -57 -19 -80 -42 -58 -56 68 -44 274
-52 328 -12 42 31 70 94 83 182 12 77 11 82 -10 111 -18 24 -20 34 -12 50 6
11 17 20 25 20 12 0 15 17 15 86 0 83 1 85 23 82 l22 -3 3 -250z m-2519 -1051
c24 -7 54 -22 66 -34 23 -21 27 -22 177 -12 84 5 155 7 158 5 4 -4 -35 -395
-47 -462 l-6 -34 134 6 c126 4 212 21 314 62 14 6 17 5 10 -3 -18 -18 -171
-61 -260 -72 -47 -6 -119 -8 -158 -4 -65 5 -87 2 -237 -40 -90 -25 -171 -46
-180 -46 -9 0 -27 11 -40 25 -18 19 -24 41 -31 107 -4 46 -24 181 -43 301 -20
120 -36 221 -36 223 0 9 131 -8 179 -22z"/>
</g>
</svg>
