<?xml version="1.0" standalone="no"?>
<!DOCTYPE svg PUBLIC "-//W3C//DTD SVG 20010904//EN"
 "http://www.w3.org/TR/2001/REC-SVG-20010904/DTD/svg10.dtd">
<svg version="1.0" xmlns="http://www.w3.org/2000/svg"
 width="1072.000000pt" height="1280.000000pt" viewBox="0 0 1072.000000 1280.000000"
 preserveAspectRatio="xMidYMid meet">
<metadata>
Created by potrace 1.15, written by Peter Selinger 2001-2017
</metadata>
<g transform="translate(0.000000,1280.000000) scale(0.100000,-0.100000)"
fill="#000000" stroke="none">
<path d="M9922 12663 c-103 -97 -142 -141 -142 -158 0 -13 14 -49 30 -80 17
-31 30 -62 30 -68 0 -5 -28 -59 -62 -119 -44 -79 -72 -117 -102 -138 -49 -36
-90 -86 -99 -121 -4 -16 -264 -280 -704 -715 -384 -379 -1038 -1028 -1455
-1441 -628 -626 -761 -753 -784 -753 -34 0 -110 -73 -119 -115 -5 -22 -216
-239 -784 -808 -945 -948 -1190 -1186 -1200 -1168 -14 23 -1122 -1069 -1199
-1181 -24 -35 -34 -62 -39 -107 -5 -54 -8 -61 -27 -61 -25 0 -196 -36 -243
-51 -18 -6 -33 -14 -33 -18 0 -5 48 -13 106 -19 59 -6 111 -15 116 -20 7 -7 6
-42 -2 -100 -9 -69 -9 -107 1 -168 7 -44 12 -90 12 -104 -1 -29 -280 -653
-418 -935 -106 -216 -214 -413 -257 -467 -37 -47 -121 -102 -200 -132 -35 -13
-134 -40 -222 -60 -244 -55 -182 7 -966 -961 -476 -587 -736 -913 -949 -1190
-107 -137 -198 -256 -204 -263 -7 -8 -2 -24 16 -51 44 -66 96 -110 257 -217
174 -116 432 -305 691 -506 449 -348 481 -370 518 -364 19 3 44 15 56 26 26
24 285 539 518 1030 85 179 203 426 262 550 556 1165 935 1977 1150 2470 189
431 253 570 279 601 34 40 41 72 28 118 -10 32 -7 81 4 81 3 0 20 -6 39 -14
l35 -15 -14 -38 c-7 -21 -71 -166 -141 -323 -186 -414 -199 -462 -154 -560 42
-93 122 -149 225 -158 86 -6 124 9 187 77 43 47 68 90 126 217 114 248 209
474 222 529 7 28 16 68 22 90 7 32 38 69 166 200 176 179 214 238 231 358 15
104 0 184 -51 270 -45 77 -79 127 -115 167 -19 22 -21 32 -15 82 6 51 13 63
67 125 33 37 150 172 259 298 215 248 216 249 811 865 220 228 523 543 674
700 151 157 386 400 523 542 136 141 262 277 278 302 16 26 53 75 82 110 30
34 62 83 71 108 17 44 17 47 -4 87 l-21 42 120 127 c254 270 2538 2540 2571
2557 49 24 88 63 112 110 12 23 146 167 325 346 l304 306 -75 80 c-61 64 -76
87 -76 111 0 25 -16 48 -84 119 l-84 88 -63 -69 -64 -69 -30 25 c-26 22 -142
103 -170 120 -6 4 -75 -54 -153 -129z m-5478 -7114 c101 -92 138 -187 116
-296 -18 -86 -53 -143 -144 -232 -90 -88 -130 -106 -226 -105 -44 1 -80 12
-185 59 -71 32 -134 62 -139 66 -9 8 16 56 82 161 l36 56 39 -60 c22 -32 56
-70 77 -83 54 -34 139 -60 152 -47 7 7 -2 17 -31 32 -58 29 -119 86 -142 133
-18 34 -19 45 -9 87 10 43 24 60 146 174 153 143 137 139 228 55z m-289 -723
c67 -28 115 -102 115 -177 0 -80 -303 -738 -357 -777 -83 -59 -180 -49 -263
25 -61 55 -79 104 -62 168 28 105 276 644 327 711 43 56 164 81 240 50z"/>
</g>
</svg>
